<svg xmlns="http://www.w3.org/2000/svg" viewBox="0 0 500 500">
  <!-- Background -->
  <defs>
    <linearGradient id="bgGradient1" x1="0%" y1="0%" x2="100%" y2="100%">
      <stop offset="0%" stop-color="#0F0F2D" />
      <stop offset="100%" stop-color="#1D0B3B" />
    </linearGradient>
    <linearGradient id="irisGradient1" x1="0%" y1="0%" x2="100%" y2="100%">
      <stop offset="0%" stop-color="#00FFAA" />
      <stop offset="100%" stop-color="#4A71FF" />
    </linearGradient>
  </defs>
  
  <!-- Main Background -->
  <rect x="0" y="0" width="500" height="500" rx="30" fill="url(#bgGradient1)" />
  
  <!-- Blockchain Network Background -->
  <g opacity="0.15">
    <circle cx="120" cy="140" r="4" fill="#FFFFFF" />
    <circle cx="200" cy="100" r="4" fill="#FFFFFF" />
    <circle cx="280" cy="80" r="4" fill="#FFFFFF" />
    <circle cx="360" cy="120" r="4" fill="#FFFFFF" />
    <circle cx="400" cy="200" r="4" fill="#FFFFFF" />
    <circle cx="420" cy="300" r="4" fill="#FFFFFF" />
    <circle cx="380" cy="380" r="4" fill="#FFFFFF" />
    <circle cx="300" cy="420" r="4" fill="#FFFFFF" />
    <circle cx="200" cy="400" r="4" fill="#FFFFFF" />
    <circle cx="100" cy="350" r="4" fill="#FFFFFF" />
    <circle cx="80" cy="250" r="4" fill="#FFFFFF" />
    <line x1="120" y1="140" x2="200" y2="100" stroke="#FFFFFF" stroke-width="1" />
    <line x1="200" y1="100" x2="280" y2="80" stroke="#FFFFFF" stroke-width="1" />
    <line x1="280" y1="80" x2="360" y2="120" stroke="#FFFFFF" stroke-width="1" />
    <line x1="360" y1="120" x2="400" y2="200" stroke="#FFFFFF" stroke-width="1" />
    <line x1="400" y1="200" x2="420" y2="300" stroke="#FFFFFF" stroke-width="1" />
    <line x1="420" y1="300" x2="380" y2="380" stroke="#FFFFFF" stroke-width="1" />
    <line x1="380" y1="380" x2="300" y2="420" stroke="#FFFFFF" stroke-width="1" />
    <line x1="300" y1="420" x2="200" y2="400" stroke="#FFFFFF" stroke-width="1" />
    <line x1="200" y1="400" x2="100" y2="350" stroke="#FFFFFF" stroke-width="1" />
    <line x1="100" y1="350" x2="80" y2="250" stroke="#FFFFFF" stroke-width="1" />
    <line x1="80" y1="250" x2="120" y2="140" stroke="#FFFFFF" stroke-width="1" />
    <line x1="120" y1="140" x2="380" y2="380" stroke="#FFFFFF" stroke-width="1" opacity="0.5" />
    <line x1="200" y1="100" x2="300" y2="420" stroke="#FFFFFF" stroke-width="1" opacity="0.5" />
    <line x1="280" y1="80" x2="100" y2="350" stroke="#FFFFFF" stroke-width="1" opacity="0.5" />
    <line x1="360" y1="120" x2="80" y2="250" stroke="#FFFFFF" stroke-width="1" opacity="0.5" />
    <line x1="400" y1="200" x2="200" y2="400" stroke="#FFFFFF" stroke-width="1" opacity="0.5" />
  </g>
  
  <!-- Main Eye Symbol -->
  <g>
    <!-- Outer Polygon Ring - Web3 Geometric Design -->
    <path d="M250,120 L310,150 L340,210 L330,280 L280,330 L220,330 L170,280 L160,210 L190,150 Z" 
          fill="none" stroke="#9945FF" stroke-width="4" />
    
    <!-- Eye Outline -->
    <ellipse cx="250" cy="250" rx="100" ry="80" fill="none" stroke="#7B61FF" stroke-width="5" />
    
    <!-- Iris with Tech Elements -->
    <circle cx="250" cy="250" r="50" fill="url(#irisGradient1)" />
    
    <!-- Pupil as AI Core -->
    <circle cx="250" cy="250" r="25" fill="#0A0A20" />
    <g fill="none" stroke="#00FAFF" stroke-width="1.5">
      <path d="M240,250 h20 M250,240 v20" />
      <path d="M235,235 L265,265 M235,265 L265,235" />
      <circle cx="250" cy="250" r="15" />
      <circle cx="250" cy="250" r="10" />
    </g>
    
    <!-- Data Flow Lines -->
    <path d="M150,250 C175,220 325,220 350,250" stroke="#00FAFF" stroke-width="2" fill="none" opacity="0.7" />
    <path d="M150,250 C175,280 325,280 350,250" stroke="#00FAFF" stroke-width="2" fill="none" opacity="0.7" />
    
    <!-- Blockchain Nodes -->
    <circle cx="185" cy="250" r="6" fill="#FF4F8F" />
    <circle cx="315" cy="250" r="6" fill="#FF4F8F" />
    <circle cx="250" cy="190" r="6" fill="#00FAFF" />
    <circle cx="250" cy="310" r="6" fill="#00FAFF" />
  </g>
  
  <!-- Digital Reflections -->
  <circle cx="230" cy="235" r="10" fill="#FFFFFF" opacity="0.6" />
  <circle cx="225" cy="230" r="5" fill="#FFFFFF" opacity="0.8" />
  
  <!-- Binary Data Elements -->
  <g fill="#00FAFF" opacity="0.4" font-family="monospace" font-size="8">
    <text x="170" y="200">01</text>
    <text x="190" y="210">10</text>
    <text x="310" y="210">01</text>
    <text x="330" y="200">10</text>
    <text x="175" y="300">10</text>
    <text x="195" y="290">01</text>
    <text x="305" y="290">10</text>
    <text x="325" y="300">01</text>
  </g>
</svg>
